<svg xmlns="http://www.w3.org/2000/svg" viewBox="0 0 24 24">
  <path fill="currentColor" d="m22 0h-20c-1.105 0-2 .895-2 2v20c0 1.105.895 2 2 2h20c1.105 0 2-.895 2-2v-20c0-1.105-.895-2-2-2zm-7.177 20.598c-.461.088-.619-.188-.619-.42 0-.287.011-1.238.011-2.422 0-.828-.292-1.371-.608-1.636 2.003-.217 4.106-.965 4.106-4.363 0-.965-.349-1.754-.923-2.373.09-.223.394-1.122-.09-2.341 0 0-.754-.237-2.464.906-.72-.197-1.485-.294-2.25-.298-.765.004-1.53.102-2.25.298-1.719-1.143-2.473-.906-2.473-.906-.484 1.218-.18 2.117-.079 2.341-.578.619-.926 1.408-.926 2.373 0 3.389 2.101 4.149 4.099 4.37-.257.221-.489.611-.57 1.183-.514.226-1.819.617-2.621-.736 0 0-.475-.849-1.379-.911 0 0-.878-.011-.063.537 0 0 .592.273 1.001 1.293 0 0 .528 1.72 3.031 1.187.004.737.011 1.293.011 1.503 0 .235-.165.509-.615.425-3.574-1.166-6.152-4.481-6.152-8.389 0-4.884 4.028-8.844 9-8.844 4.97 0 9 3.96 9 8.844 0 3.902-2.576 7.219-6.177 8.379z"/>
</svg>
