<svg xmlns="http://www.w3.org/2000/svg" xmlns:xlink="http://www.w3.org/1999/xlink" viewBox="0,0,255.99625,255.99625" width="200px" height="200px" fill-rule="nonzero">
  <defs>
    <linearGradient x1="1.223" y1="72.5" x2="29.62" y2="72.5" gradientUnits="userSpaceOnUse" id="color-1">
      <stop offset="0" stop-color="currentColor" stop-opacity="0"/>
      <stop offset="1" stop-color="currentColor"/>
    </linearGradient>
    <linearGradient x1="99.777" y1="72.5" x2="71.38" y2="72.5" gradientUnits="userSpaceOnUse" id="color-2">
      <stop offset="0" stop-color="currentColor" stop-opacity="0"/>
      <stop offset="1" stop-color="currentColor"/>
    </linearGradient>
    <linearGradient x1="1.223" y1="28.5" x2="29.62" y2="28.5" gradientUnits="userSpaceOnUse" id="color-3">
      <stop offset="0" stop-color="currentColor" stop-opacity="0"/>
      <stop offset="1" stop-color="currentColor"/>
    </linearGradient>
    <linearGradient x1="99.777" y1="28.5" x2="71.38" y2="28.5" gradientUnits="userSpaceOnUse" id="color-4">
      <stop offset="0" stop-color="currentColor" stop-opacity="0"/>
      <stop offset="1" stop-color="currentColor"/>
    </linearGradient>
    <linearGradient x1="82.5" y1="89.777" x2="82.5" y2="61.38" gradientUnits="userSpaceOnUse" id="color-5">
      <stop offset="0" stop-color="currentColor" stop-opacity="0"/>
      <stop offset="1" stop-color="currentColor"/>
    </linearGradient>
    <linearGradient x1="18.5" y1="89.777" x2="18.5" y2="61.38" gradientUnits="userSpaceOnUse" id="color-6">
      <stop offset="0" stop-color="currentColor" stop-opacity="0"/>
      <stop offset="1" stop-color="currentColor"/>
    </linearGradient>
    <linearGradient x1="90.004" y1="11.417" x2="75.457" y2="45.688" gradientUnits="userSpaceOnUse" id="color-7">
      <stop offset="0" stop-color="currentColor" stop-opacity="0"/>
      <stop offset="1" stop-color="currentColor"/>
    </linearGradient>
    <linearGradient x1="10.996" y1="11.417" x2="25.543" y2="45.688" gradientUnits="userSpaceOnUse" id="color-8">
      <stop offset="0" stop-color="currentColor" stop-opacity="0"/>
      <stop offset="1" stop-color="currentColor"/>
    </linearGradient>
    <linearGradient x1="33.657" y1="55.5" x2="73.275" y2="55.5" gradientUnits="userSpaceOnUse" id="color-9">
      <stop offset="0" stop-color="currentColor" stop-opacity="0"/>
      <stop offset="1" stop-color="currentColor"/>
    </linearGradient>
    <linearGradient x1="67.343" y1="55.5" x2="27.725" y2="55.5" gradientUnits="userSpaceOnUse" id="color-10">
      <stop offset="0" stop-color="currentColor" stop-opacity="0"/>
      <stop offset="1" stop-color="currentColor"/>
    </linearGradient>
  </defs>
  <g fill="none" fill-rule="nonzero" stroke="none" stroke-width="1" stroke-linecap="butt" stroke-linejoin="miter" stroke-miterlimit="10" stroke-dasharray="" stroke-dashoffset="0" font-family="none" font-weight="none" font-size="none" text-anchor="none" style="mix-blend-mode: normal">
    <g transform="scale(2.56,2.56)">
      <path d="M9,71h-1v-1h1zM9,69h-1v-1h1zM9,67h-1v-1h1zM9,65h-1v-1h1zM9,63h-1v-1h1zM9,61h-1v-1h1zM9,59h-1v-1h1zM9,57h-1v-1h1zM9,55h-1v-1h1zM9,53h-1v-1h1zM9,51h-1v-1h1zM9,49h-1v-1h1zM9,47h-1v-1h1zM9,45h-1v-1h1zM9,43h-1v-1h1zM9,41h-1v-1h1zM9,39h-1v-1h1zM9,37h-1v-1h1zM9,35h-1v-1h1zM9,33h-1v-1h1zM9,31h-1v-1h1z" fill="currentColor" opacity="0.25"/>
      <rect x="1" y="72" width="22" height="1" fill="url(#color-1)" opacity="0.25"/>
      <path d="M100,72h-22v1h22z" fill="url(#color-2)" opacity="0.25"/>
      <rect x="1" y="28" width="22" height="1" fill="url(#color-3)" opacity="0.25"/>
      <path d="M100,28h-22v1h22z" fill="url(#color-4)" opacity="0.25"/>
      <path d="M82,90v-22h1v22z" fill="url(#color-5)" opacity="0.25"/>
      <path d="M18,90v-22h1v22z" fill="url(#color-6)" opacity="0.25"/>
      <path d="M81,82h-1v-1h1zM79,82h-1v-1h1zM77,82h-1v-1h1zM75,82h-1v-1h1zM73,82h-1v-1h1zM71,82h-1v-1h1zM69,82h-1v-1h1zM67,82h-1v-1h1zM65,82h-1v-1h1zM63,82h-1v-1h1zM61,82h-1v-1h1zM59,82h-1v-1h1zM57,82h-1v-1h1zM55,82h-1v-1h1zM53,82h-1v-1h1zM51,82h-1v-1h1zM49,82h-1v-1h1zM47,82h-1v-1h1zM45,82h-1v-1h1zM43,82h-1v-1h1zM41,82h-1v-1h1zM39,82h-1v-1h1zM37,82h-1v-1h1zM35,82h-1v-1h1zM33,82h-1v-1h1zM31,82h-1v-1h1zM29,82h-1v-1h1zM27,82h-1v-1h1zM25,82h-1v-1h1zM23,82h-1v-1h1zM21,82h-1v-1h1z" fill="currentColor" opacity="0.25"/>
      <path d="M41.43,50.19l0.85,0.62l-17.78,12.96c-1.39,1.02 -2.48,2.39 -3.15,3.97l-1.89,4.46l-0.92,-0.4l1.89,-4.45c0.74,-1.75 1.94,-3.27 3.48,-4.38z" fill="currentColor"/>
      <path d="M82.46,71.8l-0.92,0.4l-1.89,-4.46c-0.67,-1.58 -1.76,-2.95 -3.15,-3.97l-17.78,-12.96l0.85,-0.62l17.52,12.78c1.54,1.11 2.74,2.63 3.48,4.38z" fill="currentColor"/>
      <path d="M81.031,33.844l-0.92,-0.39l9.429,-22.234l0.92,0.391z" fill="url(#color-7)" opacity="0.25"/>
      <path d="M19.969,33.844l0.92,-0.39l-9.429,-22.234l-0.92,0.391z" fill="url(#color-8)" opacity="0.25"/>
      <path d="M50.5,56.001c-1.775,0 -3.552,-0.552 -5.066,-1.657l-21.819,-15.906c-1.608,-1.172 -2.869,-2.761 -3.647,-4.594l-1.889,-4.454l1.842,-0.781l1.889,4.454c0.636,1.5 1.668,2.8 2.983,3.759l21.818,15.906c2.327,1.695 5.452,1.694 7.777,0l21.818,-15.906c1.315,-0.959 2.348,-2.259 2.983,-3.759l1.889,-4.454l1.842,0.781l-1.889,4.454c-0.778,1.833 -2.039,3.421 -3.647,4.594l-21.818,15.906c-1.514,1.105 -3.291,1.657 -5.066,1.657z" fill="currentColor"/>
      <path d="M83,73h-65v-45h65zM20,71h61v-41h-61z" fill="currentColor"/>
      <path d="M21.71,67c-0.13,0.24 -0.25,0.49 -0.36,0.74l-0.54,1.28l2.02,-2.02zM24.23,67l-4,4h1.42l4,-4zM27.07,67l-4,4h1.41l4,-4zM29.89,67l-4,4h1.42l4,-4zM32.73,67l-4,4h1.4l4,-4zM35.55,67l-4,4h1.42l4,-4zM38.38,67l-4,4h1.41l4,-4zM41.21,67l-4,4h1.41l4,-4zM44.03,67l-4,4h1.42l4,-4zM46.87,67l-4,4h1.4l4,-4zM49.69,67l-4,4h1.42l4,-4zM52.52,67l-4,4h1.41l4,-4zM55.35,67l-4,4h1.42l4,-4zM58.17,67l-4,4h1.42l4,-4zM61.01,67l-4,4h1.41l4,-4zM63.83,67l-4,4h1.42l4,-4zM66.67,67l-4,4h1.4l4,-4zM69.49,67l-4,4h1.42l4,-4zM72.32,67l-4,4h1.41l4,-4zM75.15,67l-4,4h1.42l4,-4zM77.97,67l-4,4h1.42l4,-4zM79.78,68.03l-2.97,2.97h1.41l1.97,-1.97zM80.61,70.02l-0.98,0.98h1.4z" fill="currentColor" opacity="0.3"/>
      <path d="M79.29,67h0.1l-0.06,0.06c-0.01,-0.02 -0.02,-0.04 -0.04,-0.06z" fill="currentColor"/>
      <rect x="28" y="55" width="22.5" height="1" fill="url(#color-9)" opacity="0.85"/>
      <path d="M73,55h-22.5v1h22.5z" fill="url(#color-10)" opacity="0.85"/>
      <path d="M51,53h-1v-1h1zM51,51h-1v-1h1zM51,49h-1v-1h1zM51,47h-1v-1h1zM51,45h-1v-1h1zM51,43h-1v-1h1zM51,41h-1v-1h1zM51,39h-1v-1h1zM51,37h-1v-1h1zM51,35h-1v-1h1zM51,33h-1v-1h1zM51,31h-1v-1h1zM51,29h-1v-1h1z" fill="currentColor" opacity="0.25"/>
    </g>
  </g>
</svg>
