<svg viewBox="0 0 36 42" fill="none" xmlns="http://www.w3.org/2000/svg">
<path d="M35.5516 20.574C35.5516 20.4328 35.4774 20.301 35.3562 20.228L27.2462 15.341L35.3421 10.567C35.4268 10.5176 35.4892 10.4387 35.5198 10.3481C35.5339 10.3069 35.541 10.2633 35.541 10.2186V10.1822C35.541 10.0409 35.4668 9.90906 35.3456 9.83609L20.1225 0.638875C19.8471 0.468208 19.5235 0.325777 19.1622 0.215137C19.161 0.215137 19.1598 0.215137 19.1586 0.215137C19.1374 0.209252 19.1151 0.203378 19.0927 0.197493C19.0704 0.191608 19.0492 0.185735 19.0268 0.179849C19.0103 0.175141 18.9927 0.170421 18.9762 0.16689C18.6584 0.0844983 18.3242 0.0303462 17.9841 0.0103369C17.957 0.00915988 17.9311 0.00797826 17.9041 0.00562422C17.8899 0.00562422 17.877 0.00447364 17.8629 0.00329662C17.8558 0.00329662 17.8476 0.00329662 17.8405 0.00329662C17.8229 0.00329662 17.804 0.000940285 17.7864 0.000940285C17.7793 0.000940285 17.7722 0.000940285 17.7652 0.000940285C16.9614 -0.014361 16.2223 0.157471 15.6774 0.488214L0.195368 9.83844C0.0741482 9.91142 0 10.0433 0 10.1845V20.5976C0 20.7388 0.0741482 20.8707 0.195368 20.9436L8.31357 25.8412L0.198888 30.6317C0.0753142 30.7047 0 30.8365 0 30.9801V31.0166C0 31.0436 0.00234631 31.0695 0.00705388 31.0942C0.0294148 31.2049 0.096508 31.3026 0.19419 31.3614L11.7277 38.3294L15.4196 40.5598C15.4196 40.5598 15.4279 40.5645 15.4314 40.5669C15.5997 40.6681 15.7821 40.7587 15.974 40.8364C15.9916 40.8435 16.0093 40.8505 16.0269 40.8576C16.041 40.8635 16.0563 40.8694 16.0705 40.8753C16.1717 40.9141 16.2741 40.9506 16.3776 40.9824C16.3788 40.9824 16.38 40.9824 16.3812 40.9824C16.5024 41.0189 16.6271 41.0495 16.7519 41.0765C16.7589 41.0777 16.766 41.0789 16.7731 41.0813C16.8143 41.0895 16.8554 41.0977 16.8966 41.106C16.9131 41.1095 16.9284 41.1118 16.9449 41.1142C16.9696 41.1189 16.9955 41.1224 17.0202 41.1272C17.0496 41.1319 17.0802 41.1366 17.1097 41.1413C17.1308 41.1448 17.1509 41.1472 17.172 41.1495C17.338 41.1719 17.5074 41.186 17.6781 41.1919C17.7405 41.1942 17.8029 41.1954 17.8652 41.1954C18.6337 41.1954 19.3387 41.0236 19.8636 40.7046L35.3456 31.3602C35.4668 31.2873 35.541 31.1555 35.541 31.0142V20.7235C35.548 20.6941 35.5516 20.6635 35.5516 20.6329V20.5752V20.574ZM18.1783 0.835428C18.3736 0.858969 18.569 0.894298 18.7597 0.942555C19.0998 1.03083 19.4234 1.15913 19.7024 1.32862L34.3794 10.1951L27.5051 14.2487L26.4601 14.8643L18.1783 9.87376V0.835428ZM0.806168 10.4093L16.0928 1.17678C16.4365 0.968449 16.8872 0.848384 17.3709 0.81425V9.94793L8.93613 15.0362L7.57565 15.853L0.808524 19.9349V10.4081L0.806168 10.4093ZM17.3603 40.3574C17.2474 40.3444 17.1332 40.3268 17.0214 40.3056C17.0037 40.3021 16.9861 40.2985 16.9684 40.295C16.9567 40.2926 16.9461 40.2903 16.9355 40.2879C16.7401 40.2456 16.5495 40.1902 16.3682 40.122C16.3659 40.122 16.3635 40.1208 16.3623 40.1196C16.3364 40.109 16.3094 40.0984 16.2835 40.0878C16.2611 40.0784 16.2376 40.069 16.2152 40.0596C16.2105 40.0572 16.207 40.056 16.2023 40.0537C16.074 39.9972 15.9516 39.9337 15.8374 39.8654L1.16041 30.9989L9.07973 26.3238L17.3615 31.319V40.3562L17.3603 40.3574ZM17.704 30.5834L17.1108 30.2256V19.9455C17.1108 19.8043 17.0367 19.6725 16.9155 19.5995L10.9027 15.9695L9.92708 15.3834L17.8358 10.6129L18.8338 11.2156L19.2457 11.4639V21.7228C19.2457 21.864 19.3199 21.9959 19.4411 22.0689L24.6465 25.2068L25.6339 25.8012L17.7016 30.5858L17.704 30.5834ZM34.7324 30.7847L19.4458 40.0113C19.101 40.2208 18.6514 40.3409 18.1677 40.3762V31.2461L26.6037 26.1578L27.9653 25.3351L34.7324 21.2532V30.7847Z" fill="currentColor"/>
</svg>
