<svg width="41" height="42" viewBox="0 0 41 42" fill="none" xmlns="http://www.w3.org/2000/svg">
<path d="M36.919 27.5305C36.8437 28.9146 36.4471 30.247 35.9234 31.5264C35.6386 32.3268 35.2879 33.1201 34.9055 33.9064C34.4488 34.8492 33.9627 35.7625 33.5061 36.6159C33.499 36.6312 33.4908 36.6453 33.4838 36.6606C33.9698 36.271 34.4335 35.8602 34.883 35.4188C35.0925 35.0222 35.295 34.6255 35.4962 34.2065C35.8775 33.4061 36.2448 32.5822 36.5437 31.7524C36.9627 30.4648 37.2474 29.1182 37.2474 27.7564V27.5399C37.225 26.118 36.8061 24.7033 36.0352 23.5286C36.7084 24.7633 37.0003 26.1698 36.9179 27.5316L36.919 27.5305Z" fill="currentColor"/>
<path d="M20.5922 0C9.21868 0 0 9.21959 0 20.6014C0 31.9831 9.21868 41.1957 20.5922 41.1957C23.4202 41.1957 26.1212 40.6271 28.5762 39.5867C28.6809 39.1229 28.801 38.6133 28.9281 38.1048C29.2647 36.743 29.6459 35.2011 29.7659 33.6969C29.7659 32.9036 29.6907 32.0879 29.4894 31.3169C29.3247 30.7108 29.0928 30.134 28.7492 29.6256C28.981 30.127 29.1082 30.6578 29.1835 31.1898C29.2729 31.8784 29.2506 32.5822 29.1541 33.2696C23.8416 30.606 18.6938 26.7513 18.3042 25.7261C17.6981 24.1242 16.366 24.349 14.8395 24.6185C14.6524 24.6562 14.4499 24.6856 14.2487 24.7162C13.9721 24.7692 13.6803 24.6044 13.3884 24.2442C13.2613 24.0877 13.1412 23.9005 13.0294 23.6981C12.2067 22.1786 11.7878 19.4997 12.1538 18.5274C12.5657 17.4646 14.2487 17.8318 16.0976 18.3332L16.4565 18.4309C17.4663 18.6934 18.8962 17.0844 20.5415 15.2059C21.709 13.8888 23.0106 12.4293 23.8556 12.0774C23.998 12.1892 24.1323 12.2869 24.2747 12.3763C25.1055 12.8625 25.9587 13.2591 26.8037 13.6558C27.2298 13.85 27.6487 14.0524 28.0536 14.2772C28.4655 14.5021 28.8622 14.741 29.1835 15.0858C28.9069 14.7116 28.5327 14.4126 28.1431 14.136C27.7618 13.8664 27.3569 13.6122 26.9603 13.3651C26.167 12.8707 25.3738 12.3775 24.6406 11.8314C24.4088 11.6666 24.1922 11.5171 23.9827 11.3523V11.3453C22.7552 10.3872 22.1797 9.42908 22.1797 8.33681C22.1797 8.26972 22.1798 8.19441 22.1868 8.12732C23.1672 8.33683 24.1922 8.40391 25.1796 8.46393C28.2701 8.64402 30.9418 8.80762 31.6302 13.1108L31.6525 13.2826L31.8173 13.358C31.8468 13.3733 34.7431 14.6751 38.1102 16.0369C38.7233 16.2841 39.6589 16.5159 40.8334 16.7855C39.0446 7.22923 30.6652 0 20.5933 0H20.5922Z" fill="currentColor"/>
</svg>
