<svg xmlns="http://www.w3.org/2000/svg" xmlns:xlink="http://www.w3.org/1999/xlink" viewBox="0,0,255.99625,255.99625" fill-rule="nonzero">
  <defs>
    <linearGradient x1="94.902" y1="17.5" x2="52.319" y2="17.5" gradientUnits="userSpaceOnUse" id="color-1">
      <stop offset="0" stop-color="#000000" stop-opacity="0"/>
      <stop offset="1" stop-color="#838282"/>
    </linearGradient>
    <linearGradient x1="94.902" y1="65.5" x2="52.319" y2="65.5" gradientUnits="userSpaceOnUse" id="color-2">
      <stop offset="0" stop-color="#000000" stop-opacity="0"/>
      <stop offset="1" stop-color="#838282"/>
    </linearGradient>
    <linearGradient x1="20.495" y1="78" x2="35.211" y2="78" gradientUnits="userSpaceOnUse" id="color-3">
      <stop offset="0" stop-color="#000000" stop-opacity="0"/>
      <stop offset="1" stop-color="#838282"/>
    </linearGradient>
    <linearGradient x1="29.277" y1="45.923" x2="41.777" y2="58.423" gradientUnits="userSpaceOnUse" id="color-4">
      <stop offset="0" stop-color="#000000" stop-opacity="0"/>
      <stop offset="1" stop-color="#838282"/>
    </linearGradient>
    <linearGradient x1="54.077" y1="70.723" x2="41.577" y2="58.223" gradientUnits="userSpaceOnUse" id="color-5">
      <stop offset="0" stop-color="#000000" stop-opacity="0"/>
      <stop offset="1" stop-color="#838282"/>
    </linearGradient>
    <linearGradient x1="6.303" y1="68.603" x2="21.758" y2="84.058" gradientUnits="userSpaceOnUse" id="color-6">
      <stop offset="0" stop-color="#000000" stop-opacity="0"/>
      <stop offset="1" stop-color="#838282"/>
    </linearGradient>
  </defs>
  <g fill="none" fill-rule="nonzero" stroke="none" stroke-width="1" stroke-linecap="butt" stroke-linejoin="miter" stroke-miterlimit="10" stroke-dasharray="" stroke-dashoffset="0" font-family="none" font-weight="none" font-size="none" text-anchor="none" style="mix-blend-mode: normal">
    <g transform="translate(-1.00099,-0.42218) scale(2.56,2.56)">
      <path d="M93,64h-1v-1h1zM93,62h-1v-1h1zM93,60h-1v-1h1zM93,58h-1v-1h1zM93,56h-1v-1h1zM93,54h-1v-1h1zM93,52h-1v-1h1zM93,50h-1v-1h1zM93,48h-1v-1h1zM93,46h-1v-1h1zM93,44h-1v-1h1zM93,42h-1v-1h1zM93,40h-1v-1h1zM93,38h-1v-1h1zM93,36h-1v-1h1zM93,34h-1v-1h1zM93,32h-1v-1h1zM93,30h-1v-1h1zM93,28h-1v-1h1zM93,26h-1v-1h1zM93,24h-1v-1h1zM93,22h-1v-1h1zM93,20h-1v-1h1z" fill="#838282" opacity="0.25"/>
      <path d="M93,17h-35v1h35z" fill="url(#color-1)" opacity="0.85"/>
      <path d="M93,65h-35v1h35z" fill="url(#color-2)" opacity="0.85"/>
      <path d="M58.5,66c-13.51,0 -24.5,-10.99 -24.5,-24.5c0,-13.51 10.99,-24.5 24.5,-24.5c13.51,0 24.5,10.99 24.5,24.5c0,13.51 -10.99,24.5 -24.5,24.5zM58.5,19c-12.406,0 -22.5,10.094 -22.5,22.5c0,12.406 10.094,22.5 22.5,22.5c12.406,0 22.5,-10.094 22.5,-22.5c0,-12.406 -10.094,-22.5 -22.5,-22.5z" fill="#838282"/>
      <path d="M19.2,80.8v0c-1.562,-1.562 -1.562,-4.094 0,-5.656l19.972,-19.972l5.656,5.656l-19.972,19.972c-1.562,1.562 -4.094,1.562 -5.656,0z" fill="currentCol"/>
      <path d="M22.028,82.972c-1.336,0 -2.591,-0.521 -3.535,-1.465v0v0v0c-0.944,-0.944 -1.465,-2.199 -1.465,-3.535c0,-1.335 0.521,-2.591 1.465,-3.535l20.679,-20.679l7.07,7.07l-20.679,20.679c-0.944,0.944 -2.2,1.465 -3.535,1.465zM39.172,56.586l-19.265,19.265c-0.566,0.566 -0.879,1.32 -0.879,2.121c0,0.802 0.312,1.555 0.879,2.121v0c1.132,1.133 3.108,1.133 4.242,0l19.265,-19.265z" fill="#838282"/>
      <path d="M39,42h-1v-1h1zM37,42h-1v-1h1zM35,42h-1v-1h1zM33,42h-1v-1h1zM31,42h-1v-1h1zM29,42h-1v-1h1zM27,42h-1v-1h1z" fill="#838282" opacity="0.25"/>
      <path d="M91,42h-1v-1h1zM89,42h-1v-1h1zM87,42h-1v-1h1zM85,42h-1v-1h1zM83,42h-1v-1h1zM81,42h-1v-1h1zM79,42h-1v-1h1z" fill="#838282" opacity="0.25"/>
      <path d="M59,76h-1v-1h1zM59,74h-1v-1h1zM59,72h-1v-1h1zM59,70h-1v-1h1zM59,68h-1v-1h1zM59,66h-1v-1h1zM59,64h-1v-1h1zM59,62h-1v-1h1z" fill="#838282" opacity="0.25"/>
      <path d="M59,22h-1v-1h1zM59,20h-1v-1h1zM59,18h-1v-1h1zM59,16h-1v-1h1zM59,14h-1v-1h1zM59,12h-1v-1h1zM59,10h-1v-1h1zM59,8h-1v-1h1z" fill="#838282" opacity="0.25"/>
      <path d="M22,82c-2.206,0 -4,-1.794 -4,-4c0,-2.206 1.794,-4 4,-4c2.206,0 4,1.794 4,4c0,2.206 -1.794,4 -4,4zM22,75c-1.654,0 -3,1.346 -3,3c0,1.654 1.346,3 3,3c1.654,0 3,-1.346 3,-3c0,-1.654 -1.346,-3 -3,-3z" fill="url(#color-3)"/>
      <path d="M41.424,58.776l-12.5,-12.5l0.707,-0.707l12.5,12.5z" fill="url(#color-4)"/>
      <path d="M41.224,58.576l12.5,12.5l0.707,-0.707l-12.5,-12.5z" fill="url(#color-5)"/>
      <path d="M8.471,68.144l-0.707,-0.707l0.707,-0.707l0.707,0.707zM9.885,66.729l-0.707,-0.707l0.707,-0.707l0.707,0.707zM11.299,65.315l-0.707,-0.707l0.707,-0.707l0.707,0.707zM12.713,63.901l-0.707,-0.707l0.708,-0.708l0.707,0.707zM14.128,62.486l-0.707,-0.707l0.707,-0.707l0.707,0.707zM15.542,61.072l-0.707,-0.707l0.707,-0.707l0.707,0.707zM16.956,59.658l-0.707,-0.707l0.707,-0.707l0.707,0.707zM18.37,58.244l-0.707,-0.707l0.707,-0.707l0.707,0.707zM19.784,56.83l-0.707,-0.707l0.707,-0.707l0.707,0.707zM21.198,55.416l-0.707,-0.707l0.707,-0.707l0.707,0.707zM22.613,54.001l-0.707,-0.707l0.707,-0.707l0.707,0.707zM24.027,52.587l-0.707,-0.707l0.707,-0.707l0.707,0.707zM25.441,51.173l-0.707,-0.707l0.707,-0.707l0.707,0.707zM26.855,49.759l-0.707,-0.707l0.707,-0.707l0.707,0.707zM28.27,48.345l-0.707,-0.707l0.707,-0.707l0.707,0.707z" fill="#838282" opacity="0.25"/>
      <path d="M18.597,81.604l-12.5,-12.5l0.707,-0.708l12.5,12.5z" fill="url(#color-6)"/>
      <path d="M58.5,61c-10.752,0 -19.5,-8.748 -19.5,-19.5c0,-10.752 8.748,-19.5 19.5,-19.5c10.752,0 19.5,8.748 19.5,19.5c0,10.752 -8.748,19.5 -19.5,19.5zM58.5,23c-10.201,0 -18.5,8.299 -18.5,18.5c0,10.201 8.299,18.5 18.5,18.5c10.201,0 18.5,-8.299 18.5,-18.5c0,-10.201 -8.299,-18.5 -18.5,-18.5z" fill="#898989"/>
      <path d="M64.19,59.1c0.82,-0.26 1.62,-0.58 2.38,-0.96l8.57,-8.57c0.38,-0.76 0.7,-1.56 0.96,-2.38zM60.59,59.88c0.57,-0.06 1.13,-0.15 1.68,-0.27l14.34,-14.34c0.12,-0.55 0.21,-1.11 0.27,-1.68zM76.98,40.65l-19.33,19.33c0.28,0.01 0.56,0.02 0.85,0.02c0.19,0 0.38,0 0.56,-0.01l17.93,-17.93c0.01,-0.18 0.01,-0.37 0.01,-0.56c0,-0.29 -0.01,-0.57 -0.02,-0.85zM76.68,38.13l-21.55,21.55c0.4,0.09 0.81,0.15 1.22,0.19l20.52,-20.52c-0.04,-0.41 -0.1,-0.82 -0.19,-1.22zM76.12,35.86l-23.26,23.26c0.36,0.11 0.72,0.22 1.09,0.32l22.49,-22.49c-0.1,-0.37 -0.21,-0.73 -0.32,-1.09zM75.32,33.83l-24.49,24.49c0.33,0.16 0.66,0.3 1,0.42l23.91,-23.91c-0.12,-0.34 -0.26,-0.67 -0.42,-1zM74.35,31.98l-25.38,25.37c0.3,0.18 0.6,0.35 0.91,0.51l24.98,-24.98c-0.16,-0.31 -0.33,-0.61 -0.51,-0.9zM73.2,30.29l-25.91,25.91c0.27,0.21 0.54,0.41 0.82,0.6l25.69,-25.69c-0.19,-0.28 -0.39,-0.55 -0.6,-0.82zM71.91,28.76l-26.15,26.15c0.24,0.23 0.49,0.45 0.75,0.66l26.06,-26.06c-0.21,-0.26 -0.43,-0.51 -0.66,-0.75zM70.44,27.39l-26.05,26.06c0.21,0.26 0.43,0.51 0.66,0.75l26.15,-26.15c-0.25,-0.23 -0.5,-0.45 -0.76,-0.66zM68.85,26.16l-25.69,25.69c0.2,0.27 0.39,0.55 0.6,0.81l25.91,-25.9c-0.27,-0.2 -0.54,-0.4 -0.82,-0.6zM67.07,25.11l-24.96,24.96c0.16,0.31 0.33,0.61 0.51,0.9l25.35,-25.35c-0.29,-0.18 -0.59,-0.35 -0.9,-0.51zM65.12,24.23l-23.89,23.89c0.13,0.34 0.27,0.68 0.42,1l24.47,-24.47c-0.32,-0.15 -0.66,-0.29 -1,-0.42zM62.98,23.55l-22.43,22.43c0.09,0.37 0.2,0.74 0.31,1.1l23.21,-23.22c-0.36,-0.11 -0.72,-0.22 -1.09,-0.31zM60.57,23.12l-20.45,20.45c0.04,0.42 0.1,0.83 0.18,1.24l21.51,-21.51c-0.41,-0.08 -0.82,-0.14 -1.24,-0.18zM58.5,23c-0.21,0 -0.43,0 -0.64,0.01l-17.85,17.85c-0.01,0.21 -0.01,0.43 -0.01,0.64c0,0.26 0.01,0.51 0.02,0.76l19.24,-19.24c-0.25,-0.01 -0.5,-0.02 -0.76,-0.02zM54.62,23.42l-14.2,14.2c-0.13,0.55 -0.22,1.12 -0.28,1.69l16.17,-16.17c-0.57,0.06 -1.14,0.15 -1.69,0.28zM50.26,24.95l-8.31,8.31c-0.4,0.78 -0.73,1.58 -1,2.42l11.73,-11.74c-0.84,0.28 -1.64,0.61 -2.42,1.01z" fill="#838282" opacity="0.3"/>
    </g>
  </g>
</svg>
